<svg width="45" height="44" viewBox="0 0 45 44" fill="none" xmlns="http://www.w3.org/2000/svg">
<g id="carbon:mixed-rain-hail" clip-path="url(#clip0_5_117)">
<path id="Vector" d="M33.7878 37.125C34.9269 37.125 35.8503 36.2016 35.8503 35.0625C35.8503 33.9234 34.9269 33 33.7878 33C32.6488 33 31.7253 33.9234 31.7253 35.0625C31.7253 36.2016 32.6488 37.125 33.7878 37.125Z" fill="white"/>
<path id="Vector_2" d="M29.6628 42.625C30.8019 42.625 31.7253 41.7016 31.7253 40.5625C31.7253 39.4234 30.8019 38.5 29.6628 38.5C28.5238 38.5 27.6003 39.4234 27.6003 40.5625C27.6003 41.7016 28.5238 42.625 29.6628 42.625Z" fill="white"/>
<path id="Vector_3" d="M21.9188 41.932L19.5318 40.568L23.8548 33H15.6062L22.2818 21.318L24.6688 22.682L20.3444 30.25H28.5958L21.9188 41.932Z" fill="white"/>
<path id="Vector_4" d="M12.4753 44C12.241 43.9999 12.0107 43.9399 11.8061 43.8257C11.6015 43.7116 11.4294 43.547 11.3063 43.3477C11.1832 43.1484 11.113 42.9209 11.1024 42.6869C11.0919 42.4528 11.1413 42.22 11.2461 42.0104L13.9961 36.5104C14.0733 36.3432 14.1833 36.1933 14.3196 36.0694C14.4559 35.9456 14.6156 35.8504 14.7894 35.7894C14.9632 35.7285 15.1474 35.7031 15.3312 35.7147C15.515 35.7264 15.6945 35.7748 15.8592 35.8572C16.0239 35.9395 16.1704 36.0541 16.29 36.1941C16.4096 36.3342 16.4998 36.4968 16.5553 36.6724C16.6109 36.848 16.6305 37.0329 16.6132 37.2162C16.5959 37.3996 16.542 37.5775 16.4546 37.7396L13.7046 43.2396C13.5907 43.4682 13.4153 43.6604 13.1982 43.7948C12.981 43.9291 12.7307 44.0002 12.4753 44ZM34.2003 12.562C33.6144 9.78696 32.0925 7.29763 29.8895 5.51124C27.6866 3.72485 24.9365 2.74995 22.1003 2.74995C19.2641 2.74995 16.5141 3.72485 14.3111 5.51124C12.1082 7.29763 10.5862 9.78696 10.0003 12.562C7.95561 12.9778 6.12112 14.0967 4.81547 15.7243C3.50982 17.3519 2.81549 19.3854 2.85307 21.4716C2.89065 23.5578 3.65777 25.565 5.02119 27.1445C6.38461 28.724 8.25821 29.7761 10.3166 30.118L8.49607 33.7604C8.40867 33.9225 8.35471 34.1004 8.33741 34.2838C8.3201 34.4671 8.33979 34.652 8.39532 34.8276C8.45084 35.0032 8.54107 35.1658 8.66064 35.3059C8.78021 35.4459 8.9267 35.5605 9.0914 35.6428C9.2561 35.7252 9.43567 35.7736 9.61945 35.7853C9.80322 35.7969 9.98746 35.7715 10.1612 35.7106C10.335 35.6497 10.4948 35.5544 10.6311 35.4306C10.7673 35.3068 10.8773 35.1568 10.9546 34.9896L13.7046 29.4896C13.8675 29.1637 13.8944 28.7865 13.7794 28.4408C13.6645 28.0951 13.417 27.8091 13.0913 27.6458C12.8993 27.5536 12.6882 27.5084 12.4753 27.5138V27.5H11.7878C10.1868 27.5052 8.64622 26.8892 7.49013 25.7817C6.33404 24.6741 5.65261 23.1613 5.5892 21.5616C5.52578 19.9618 6.08534 18.3998 7.15013 17.2042C8.21492 16.0087 9.70194 15.2727 11.2983 15.1511L12.4203 15.0631L12.5564 13.9466C12.8435 11.6174 13.9723 9.47352 15.7303 7.91883C17.4883 6.36415 19.7542 5.50598 22.101 5.50598C24.4479 5.50598 26.7137 6.36415 28.4717 7.91883C30.2297 9.47352 31.3586 11.6174 31.6456 13.9466L31.7817 15.0631L32.9023 15.1511C34.4987 15.2727 35.9857 16.0087 37.0505 17.2042C38.1153 18.3998 38.6749 19.9618 38.6114 21.5616C38.548 23.1613 37.8666 24.6741 36.7105 25.7817C35.5544 26.8892 34.0138 27.5052 32.4128 27.5H31.7253V30.25H32.4128C34.6282 30.2523 36.7654 29.4314 38.4096 27.9466C40.0538 26.4618 41.0876 24.419 41.3103 22.2148C41.5331 20.0107 40.9289 17.8024 39.615 16.0186C38.3012 14.2349 36.3714 13.003 34.2003 12.562Z" fill="white"/>
</g>
<defs>
<clipPath id="clip0_5_117">
<rect width="44" height="44" fill="white" transform="translate(0.100342)"/>
</clipPath>
</defs>
</svg>
