<svg width="52" height="52" viewBox="0 0 52 52" fill="none" xmlns="http://www.w3.org/2000/svg">
<g id="carbon:mixed-rain-hail" clip-path="url(#clip0_5_135)">
<path id="Vector" d="M39.5361 43.8679C40.857 43.8679 41.9278 42.7971 41.9278 41.4762C41.9278 40.1554 40.857 39.0846 39.5361 39.0846C38.2152 39.0846 37.1444 40.1554 37.1444 41.4762C37.1444 42.7971 38.2152 43.8679 39.5361 43.8679Z" fill="white"/>
<path id="Vector_2" d="M34.7528 50.2457C36.0736 50.2457 37.1444 49.1749 37.1444 47.854C37.1444 46.5331 36.0736 45.4624 34.7528 45.4624C33.4319 45.4624 32.3611 46.5331 32.3611 47.854C32.3611 49.1749 33.4319 50.2457 34.7528 50.2457Z" fill="white"/>
<path id="Vector_3" d="M25.7729 49.4421L23.0049 47.8604L28.0178 39.0846H18.4528L26.1938 25.5381L28.9618 27.1198L23.9472 35.8957H33.5155L25.7729 49.4421Z" fill="white"/>
<path id="Vector_4" d="M14.8222 51.8402C14.5505 51.84 14.2834 51.7704 14.0462 51.6381C13.8089 51.5057 13.6094 51.3149 13.4666 51.0838C13.3238 50.8526 13.2425 50.5889 13.2302 50.3174C13.218 50.046 13.2753 49.776 13.3968 49.533L16.5857 43.1552C16.6752 42.9613 16.8028 42.7875 16.9608 42.6439C17.1189 42.5002 17.3041 42.3898 17.5056 42.3192C17.7071 42.2485 17.9208 42.2191 18.1339 42.2326C18.347 42.2461 18.5552 42.3022 18.7462 42.3977C18.9372 42.4932 19.1071 42.6261 19.2457 42.7885C19.3844 42.9509 19.489 43.1395 19.5534 43.3431C19.6178 43.5467 19.6406 43.7611 19.6205 43.9737C19.6005 44.1863 19.5379 44.3927 19.4365 44.5806L16.2477 50.9584C16.1156 51.2235 15.9123 51.4464 15.6604 51.6022C15.4086 51.7579 15.1183 51.8404 14.8222 51.8402ZM40.0145 15.3847C39.3351 12.1668 37.5702 9.28016 35.0157 7.20866C32.4612 5.13717 29.2722 4.00668 25.9833 4.00668C22.6945 4.00668 19.5055 5.13717 16.951 7.20866C14.3965 9.28016 12.6316 12.1668 11.9522 15.3847C9.58116 15.8669 7.4539 17.1643 5.93987 19.0517C4.42584 20.939 3.6207 23.2971 3.66428 25.7163C3.70786 28.1355 4.5974 30.463 6.17842 32.2946C7.75944 34.1262 9.93206 35.3461 12.3189 35.7426L10.2079 39.9663C10.1065 40.1543 10.044 40.3606 10.0239 40.5732C10.0038 40.7858 10.0267 41.0003 10.0911 41.2039C10.1554 41.4075 10.2601 41.596 10.3987 41.7584C10.5374 41.9208 10.7072 42.0537 10.8982 42.1492C11.0892 42.2447 11.2974 42.3009 11.5106 42.3144C11.7237 42.3278 11.9373 42.2984 12.1388 42.2277C12.3403 42.1571 12.5256 42.0467 12.6836 41.9031C12.8416 41.7595 12.9692 41.5856 13.0588 41.3917L16.2477 35.014C16.4366 34.6361 16.4678 34.1986 16.3345 33.7977C16.2011 33.3968 15.9142 33.0653 15.5365 32.8758C15.3139 32.769 15.0691 32.7165 14.8222 32.7227V32.7068H14.025C12.1685 32.7128 10.382 31.9985 9.0414 30.7142C7.7008 29.4299 6.91061 27.6757 6.83708 25.8206C6.76355 23.9655 7.4124 22.1543 8.64713 20.7678C9.88186 19.3814 11.6062 18.528 13.4574 18.3871L14.7584 18.285L14.9163 16.9903C15.2491 14.2894 16.5581 11.8033 18.5967 10.0005C20.6353 8.19769 23.2627 7.20256 25.9841 7.20256C28.7055 7.20256 31.333 8.19769 33.3716 10.0005C35.4102 11.8033 36.7192 14.2894 37.052 16.9903L37.2099 18.285L38.5093 18.3871C40.3605 18.528 42.0848 19.3814 43.3196 20.7678C44.5543 22.1543 45.2031 23.9655 45.1296 25.8206C45.0561 27.6757 44.2659 29.4299 42.9253 30.7142C41.5847 31.9985 39.7982 32.7128 37.9417 32.7068H37.1445V35.8957H37.9417C40.5107 35.8984 42.989 34.9464 44.8956 33.2247C46.8021 31.5029 48.0009 29.1341 48.2592 26.5781C48.5175 24.0222 47.8169 21.4614 46.2933 19.393C44.7698 17.3246 42.532 15.896 40.0145 15.3847Z" fill="white"/>
</g>
<defs>
<clipPath id="clip0_5_135">
<rect width="51.0223" height="51.0223" fill="white" transform="translate(0.472168 0.817841)"/>
</clipPath>
</defs>
</svg>
