<svg viewBox="0 0 1024.268 1058.695" xmlns="http://www.w3.org/2000/svg"><path d="M423.366 297.72c135.472 0 245.295 109.822 245.295 245.295 0 6.982-.232 13.964-.79 20.945 94.762 5.227 169.625 83.343 169.625 178.944S762.632 916.62 668.332 921.828l-.462.02H201.075C90.026 921.848 0 831.823 0 720.772 0 617.48 77.883 532.38 178.128 520.992l.922-.086C190.908 395.35 295.73 297.87 423.352 297.72h.015zm242.78 312.785h-53.2l5.4-27.927c2.397-11.72 3.77-25.194 3.77-38.987v-.705.036c0-109.765-88.984-198.748-198.75-198.748s-198.75 88.983-198.75 198.75v23.272h-23.272c-85.345 0-154.53 69.186-154.53 154.53s69.185 154.532 154.53 154.532h464.803c69.804-4.267 124.8-61.922 124.8-132.422S735.95 614.68 666.52 610.43l-.374-.018zm179.387 175.477H821.33v-46.545h24.203c73.006 0 132.19-59.183 132.19-132.19S918.538 475.06 845.532 475.06h-54.32l4.98-27.463c2.242-12.05 3.622-26.018 3.816-40.272v-.176c.003-.302.004-.657.004-1.013 0-109.766-88.983-198.75-198.75-198.75-82.072 0-152.526 49.748-182.852 120.735l-.492 1.297-42.915-17.968c38.1-89.063 124.98-150.334 226.168-150.334 135.472 0 245.295 109.822 245.295 245.295 0 .455 0 .91-.004 1.365v-.07q0 10.426-.977 20.806c98.712 0 178.735 80.022 178.735 178.735S944.2 785.983 845.487 785.983z"/></svg>