<svg width="46" height="45" viewBox="0 0 46 45" fill="none" xmlns="http://www.w3.org/2000/svg">
<g id="material-symbols:weather-snowy-outline">
<path id="Vector" d="M12.2358 35.625C11.5796 35.625 11.0252 35.3981 10.5727 34.9444C10.119 34.4919 9.89209 33.9375 9.89209 33.2812C9.89209 32.625 10.119 32.0706 10.5727 31.6181C11.0252 31.1644 11.5796 30.9375 12.2358 30.9375C12.8921 30.9375 13.4471 31.1644 13.9008 31.6181C14.3533 32.0706 14.5796 32.625 14.5796 33.2812C14.5796 33.9375 14.3533 34.4919 13.9008 34.9444C13.4471 35.3981 12.8921 35.625 12.2358 35.625ZM17.8608 41.25C17.2046 41.25 16.6502 41.0231 16.1977 40.5694C15.744 40.1169 15.5171 39.5625 15.5171 38.9062C15.5171 38.25 15.744 37.6956 16.1977 37.2431C16.6502 36.7894 17.2046 36.5625 17.8608 36.5625C18.5171 36.5625 19.0715 36.7894 19.524 37.2431C19.9777 37.6956 20.2046 38.25 20.2046 38.9062C20.2046 39.5625 19.9777 40.1169 19.524 40.5694C19.0715 41.0231 18.5171 41.25 17.8608 41.25ZM23.4858 35.625C22.8296 35.625 22.2752 35.3981 21.8227 34.9444C21.369 34.4919 21.1421 33.9375 21.1421 33.2812C21.1421 32.625 21.369 32.0706 21.8227 31.6181C22.2752 31.1644 22.8296 30.9375 23.4858 30.9375C24.1421 30.9375 24.6965 31.1644 25.149 31.6181C25.6027 32.0706 25.8296 32.625 25.8296 33.2812C25.8296 33.9375 25.6027 34.4919 25.149 34.9444C24.6965 35.3981 24.1421 35.625 23.4858 35.625ZM34.7358 35.625C34.0796 35.625 33.5252 35.3981 33.0727 34.9444C32.619 34.4919 32.3921 33.9375 32.3921 33.2812C32.3921 32.625 32.619 32.0706 33.0727 31.6181C33.5252 31.1644 34.0796 30.9375 34.7358 30.9375C35.3921 30.9375 35.9471 31.1644 36.4008 31.6181C36.8533 32.0706 37.0796 32.625 37.0796 33.2812C37.0796 33.9375 36.8533 34.4919 36.4008 34.9444C35.9471 35.3981 35.3921 35.625 34.7358 35.625ZM29.1108 41.25C28.4546 41.25 27.9002 41.0231 27.4477 40.5694C26.994 40.1169 26.7671 39.5625 26.7671 38.9062C26.7671 38.25 26.994 37.6956 27.4477 37.2431C27.9002 36.7894 28.4546 36.5625 29.1108 36.5625C29.7671 36.5625 30.3221 36.7894 30.7758 37.2431C31.2283 37.6956 31.4546 38.25 31.4546 38.9062C31.4546 39.5625 31.2283 40.1169 30.7758 40.5694C30.3221 41.0231 29.7671 41.25 29.1108 41.25ZM14.1108 28.125C11.2671 28.125 8.83772 27.1169 6.82272 25.1006C4.80646 23.0856 3.79834 20.6562 3.79834 17.8125C3.79834 15.2188 4.65771 12.9531 6.37647 11.0156C8.09522 9.07812 10.2202 7.9375 12.7515 7.59375C13.7515 5.8125 15.119 4.41375 16.854 3.3975C18.5877 2.3825 20.4858 1.875 22.5483 1.875C25.3608 1.875 27.8058 2.77375 29.8833 4.57125C31.9621 6.3675 33.2202 8.60938 33.6577 11.2969C35.814 11.4844 37.6265 12.375 39.0952 13.9688C40.564 15.5625 41.2983 17.4688 41.2983 19.6875C41.2983 22.0312 40.4783 24.0238 38.8383 25.665C37.1971 27.305 35.2046 28.125 32.8608 28.125H14.1108ZM14.1108 24.375H32.8608C34.1733 24.375 35.2827 23.9219 36.189 23.0156C37.0952 22.1094 37.5483 21 37.5483 19.6875C37.5483 18.375 37.0952 17.2656 36.189 16.3594C35.2827 15.4531 34.1733 15 32.8608 15H30.0483V13.125C30.0483 11.0625 29.314 9.29688 27.8452 7.82813C26.3765 6.35938 24.6108 5.625 22.5483 5.625C21.0483 5.625 19.6808 6.03125 18.4458 6.84375C17.2121 7.65625 16.2827 8.75 15.6577 10.125L15.189 11.25H14.0171C12.2358 11.3125 10.7127 11.9762 9.44772 13.2413C8.18147 14.5075 7.54834 16.0312 7.54834 17.8125C7.54834 19.625 8.18897 21.1719 9.47022 22.4531C10.7515 23.7344 12.2983 24.375 14.1108 24.375Z" fill="white"/>
</g>
</svg>
