<svg width="48" height="48" viewBox="0 0 48 48" fill="none" xmlns="http://www.w3.org/2000/svg">
<g id="mdi:weather-windy">
<path id="Vector" d="M8 20C7.46957 20 6.96086 19.7893 6.58579 19.4142C6.21071 19.0391 6 18.5304 6 18C6 17.4696 6.21071 16.9609 6.58579 16.5858C6.96086 16.2107 7.46957 16 8 16H24C25.0609 16 26.0783 15.5786 26.8284 14.8284C27.5786 14.0783 28 13.0609 28 12C28 10.9391 27.5786 9.92172 26.8284 9.17157C26.0783 8.42143 25.0609 8 24 8C22.9 8 21.9 8.44 21.18 9.18C20.998 9.37424 20.7781 9.52908 20.5338 9.63493C20.2896 9.74078 20.0262 9.79539 19.76 9.79539C19.4938 9.79539 19.2304 9.74078 18.9862 9.63493C18.7419 9.52908 18.522 9.37424 18.34 9.18C17.56 8.4 17.56 7.12 18.34 6.34C19.8 4.9 21.8 4 24 4C26.1217 4 28.1566 4.84285 29.6569 6.34315C31.1571 7.84344 32 9.87827 32 12C32 14.1217 31.1571 16.1566 29.6569 17.6569C28.1566 19.1571 26.1217 20 24 20H8ZM38 24C38.5304 24 39.0391 23.7893 39.4142 23.4142C39.7893 23.0391 40 22.5304 40 22C40 21.4696 39.7893 20.9609 39.4142 20.5858C39.0391 20.2107 38.5304 20 38 20C37.44 20 36.94 20.22 36.58 20.58C36.395 20.7654 36.1752 20.9125 35.9333 21.0129C35.6913 21.1132 35.4319 21.1649 35.17 21.1649C34.9081 21.1649 34.6487 21.1132 34.4067 21.0129C34.1648 20.9125 33.945 20.7654 33.76 20.58C33 19.8 33 18.54 33.76 17.76C34.84 16.68 36.34 16 38 16C39.5913 16 41.1174 16.6321 42.2426 17.7574C43.3679 18.8826 44 20.4087 44 22C44 23.5913 43.3679 25.1174 42.2426 26.2426C41.1174 27.3679 39.5913 28 38 28H10C9.46957 28 8.96086 27.7893 8.58579 27.4142C8.21071 27.0391 8 26.5304 8 26C8 25.4696 8.21071 24.9609 8.58579 24.5858C8.96086 24.2107 9.46957 24 10 24H38ZM36 36H8C7.46957 36 6.96086 35.7893 6.58579 35.4142C6.21071 35.0391 6 34.5304 6 34C6 33.4696 6.21071 32.9609 6.58579 32.5858C6.96086 32.2107 7.46957 32 8 32H36C37.5913 32 39.1174 32.6321 40.2426 33.7574C41.3679 34.8826 42 36.4087 42 38C42 39.5913 41.3679 41.1174 40.2426 42.2426C39.1174 43.3679 37.5913 44 36 44C34.34 44 32.84 43.32 31.76 42.24C31 41.46 31 40.2 31.76 39.42C31.945 39.2346 32.1648 39.0875 32.4067 38.9871C32.6487 38.8868 32.9081 38.8351 33.17 38.8351C33.4319 38.8351 33.6913 38.8868 33.9333 38.9871C34.1752 39.0875 34.395 39.2346 34.58 39.42C34.94 39.78 35.44 40 36 40C36.5304 40 37.0391 39.7893 37.4142 39.4142C37.7893 39.0391 38 38.5304 38 38C38 37.4696 37.7893 36.9609 37.4142 36.5858C37.0391 36.2107 36.5304 36 36 36Z" fill="white"/>
</g>
</svg>
