<svg height="64" viewBox="0 0 128 128" width="64" xmlns="http://www.w3.org/2000/svg" xmlns:xlink="http://www.w3.org/1999/xlink"><linearGradient id="a" gradientUnits="userSpaceOnUse" x1="0" x2="128" y1="128" y2="0"><stop offset="0" stop-color="#333"/><stop offset="1" stop-color="#5d5d5d"/></linearGradient><path d="m56.421875 19.3125-5.65625 12.3125-6.6875-11.6875c-.467098.101547-.945804.193775-1.40625.3125l-.8125 13.46875-10.46875-8.46875c-.404965.267186-.793682.561531-1.1875.84375l4.09375 12.8125-12.78125-4.09375c-.282215.393816-.576559.782539-.84375 1.1875l8.46875 10.4375-13.5.8125c-.116994.45373-.180937.914806-.28125 1.375l11.6875 6.75-12.3125 5.625c.05256.460547.08718.919662.15625 1.375l13.40625 2.0625-9.5 9.75c.208246.395335.434487.800641.65625 1.1875l5.40625-1.1875c1.697613-3.808001 4.30165-7.128722 7.53125-9.6875-.958188-2.415277-1.5-5.05868-1.5-7.8125 0-11.69638 9.522375-21.21875 21.21875-21.21875 11.696376 0 21.1875 9.52237 21.1875 21.21875 0 4.907982-1.693479 9.435676-4.5 13.03125.187975.261024.383885.513345.5625.78125 2.423831-1.280123 5.106396-2.1875 8.03125-2.1875 3.26754 0 6.275356.93429 8.84375 2.53125l-10.0625-8.625 13.46875-3.34375c.02299-.401656.02102-.813815.03125-1.21875l-13.0625-4.59375 11.28125-7.9375c-.127784-.396315-.265796-.797051-.40625-1.1875l-13.8125.46875 7.625-11.4375c-.271957-.334192-.560687-.675473-.84375-1l-12.59375 5.375 2.9375-13.28125c-.394651-.226614-.815267-.474955-1.21875-.6875l-9.75 9.5-2.03125-13.375c-.460358-.07009-.909306-.13426-1.375-.1875zm-5.3125 18.125c-10.182737.516229-18.28125 8.937791-18.28125 19.25 0 2.316195.440021 4.539531 1.1875 6.59375 4.060807-2.723885 8.942683-4.3125 14.1875-4.3125 7.800909 0 14.676299 3.611165 19.34375 9.15625 2.363911-3.19513 3.78125-7.14596 3.78125-11.4375 0-10.644861-8.573896-19.25-19.21875-19.25-.332652 0-.671525-.01665-1 0zm-2.5 23.90625c-13.071528 0-23.65625 10.615967-23.65625 23.6875 0 .343533-.01444.691284 0 1.03125-3.327378 1.210585-5.6875 4.379125-5.6875 8.125 0 4.78675 3.869495 8.6875 8.65625 8.6875 1.461333 0 2.854732-.36132 4.0625-1 4.274176 4.21927 10.144609 6.8125 16.625 6.8125h50.84375c7.640405 0 13.812505-6.17209 13.812505-13.8125 0-7.640405-6.1721-13.84375-13.812505-13.84375-2.387626 0-4.633537.62265-6.59375 1.6875-1.590541-6.870021-7.740146-12.03125-15.09375-12.03125-3.188539 0-6.129745.974373-8.59375 2.625-4.076129-7.136244-11.755724-11.96875-20.5625-11.96875z" fill="url(#a)"/></svg>